<?xml version="1.0" encoding="iso-8859-1"?>
<!-- Generator: Adobe Illustrator 19.0.0, SVG Export Plug-In . SVG Version: 6.00 Build 0)  -->
<svg version="1.1" id="Layer_1" xmlns="http://www.w3.org/2000/svg" xmlns:xlink="http://www.w3.org/1999/xlink" x="0px" y="0px"
	 viewBox="0 0 182.849 182.849" style="enable-background:new 0 0 182.849 182.849;" xml:space="preserve">
<g>
	<g>
		<g>
			<path d="M146.567,46.392C144.685,20.505,122.272,0,94.99,0C73.346,0,54.276,12.797,46.669,32.12
				c-0.531-0.019-1.064-0.028-1.6-0.028c-24.578,0-44.573,19.995-44.573,44.573s19.995,44.573,44.573,44.573
				c0.465,0,0.928-0.007,1.391-0.021c0.129,0.014,0.26,0.021,0.392,0.021h99.843c0.258,0,0.512-0.028,0.757-0.083
				c19.619-1.313,34.901-17.61,34.901-37.358C182.352,63.706,166.447,47.261,146.567,46.392z M146.499,114.064
				c-0.127,0.007-0.254,0.021-0.378,0.042H47.384c-0.221-0.031-0.449-0.056-0.669-0.035c-0.545,0.021-1.095,0.035-1.647,0.035
				c-20.645,0-37.441-16.795-37.441-37.441c0-20.645,16.796-37.441,37.441-37.441c1.245,0,2.478,0.061,3.691,0.179
				c1.649,0.178,3.211-0.846,3.735-2.43C58.39,19.124,75.467,7.132,94.99,7.132c24.578,0,44.573,19.196,44.573,42.835
				c0,0.977,0.4,1.91,1.109,2.584c0.707,0.674,1.649,1.059,2.636,0.977c0.531-0.026,1.064-0.04,1.604-0.04
				c16.713,0,30.309,13.596,30.309,30.309C175.221,99.94,162.605,113.239,146.499,114.064z"/>
			<path d="M74.382,129.849c-1.713-0.989-3.888-0.4-4.872,1.306l-8.228,14.253c-0.984,1.706-0.4,3.886,1.306,4.872
				c0.562,0.324,1.175,0.477,1.779,0.477c1.233,0,2.43-0.641,3.092-1.783l8.228-14.253
				C76.672,133.014,76.088,130.834,74.382,129.849z"/>
			<path d="M74.382,161.941c-1.713-0.986-3.888-0.397-4.872,1.306L61.282,177.5c-0.984,1.706-0.4,3.886,1.306,4.872
				c0.562,0.324,1.175,0.477,1.779,0.477c1.233,0,2.43-0.641,3.092-1.783l8.228-14.253
				C76.672,165.107,76.088,162.927,74.382,161.941z"/>
			<path d="M95.777,129.849c-1.712-0.989-3.886-0.4-4.872,1.306l-8.228,14.253c-0.984,1.706-0.4,3.886,1.306,4.872
				c0.562,0.324,1.175,0.477,1.779,0.477c1.233,0,2.43-0.641,3.092-1.783l8.228-14.253
				C98.067,133.014,97.483,130.834,95.777,129.849z"/>
			<path d="M95.777,161.941c-1.712-0.986-3.886-0.397-4.872,1.306L82.677,177.5c-0.984,1.706-0.4,3.886,1.306,4.872
				c0.562,0.324,1.175,0.477,1.779,0.477c1.233,0,2.43-0.641,3.092-1.783l8.228-14.253
				C98.067,165.107,97.483,162.927,95.777,161.941z"/>
			<path d="M117.172,129.849c-1.71-0.989-3.885-0.4-4.872,1.306l-8.228,14.253c-0.984,1.706-0.4,3.886,1.306,4.872
				c0.562,0.324,1.175,0.477,1.779,0.477c1.233,0,2.43-0.641,3.092-1.783l8.228-14.253
				C119.462,133.014,118.878,130.834,117.172,129.849z"/>
			<path d="M117.172,161.941c-1.71-0.986-3.885-0.397-4.872,1.306l-8.228,14.253c-0.984,1.706-0.4,3.886,1.306,4.872
				c0.562,0.324,1.175,0.477,1.779,0.477c1.233,0,2.43-0.641,3.092-1.783l8.228-14.253
				C119.462,165.107,118.878,162.927,117.172,161.941z"/>
		</g>
	</g>
</g>
<g>
</g>
<g>
</g>
<g>
</g>
<g>
</g>
<g>
</g>
<g>
</g>
<g>
</g>
<g>
</g>
<g>
</g>
<g>
</g>
<g>
</g>
<g>
</g>
<g>
</g>
<g>
</g>
<g>
</g>
</svg>
